<svg xmlns="http://www.w3.org/2000/svg" viewBox="0 0 22.65 33.67"><defs><style>.cls-1{fill:#fff;}</style></defs><title>humidity</title><g id="Layer_2" data-name="Layer 2"><g id="Layer_1-2" data-name="Layer 1"><g id="g4354"><g id="g4360"><path id="path4362" class="cls-1" d="M11.33,0l-.61.91L8.91,3.62H8.76C8,4.72,6,8.06,3.93,11.78S0,19.46,0,22.35a11.33,11.33,0,0,0,22.65,0c0-2.89-1.9-6.86-3.93-10.57s-4.24-7-5-8.16L11.93.91Zm0,2.57,1.2,1.81c.73,1.08,2.85,4.36,4.84,8s3.77,7.8,3.77,10a9.82,9.82,0,0,1-19.63,0c0-2.17,1.63-6.32,3.62-10s4.26-6.91,5-8Z"/></g></g></g></g></svg>