<svg xmlns="http://www.w3.org/2000/svg" viewBox="0 0 45.96 44.4"><defs><style>.cls-1{fill:#fff;}</style></defs><title>ice1</title><g id="Layer_2" data-name="Layer 2"><g id="Layer_1-2" data-name="Layer 1"><path id="path214" class="cls-1" d="M12.94,29.14a.58.58,0,0,0,.06-.26m9.19.26a.77.77,0,0,0,.07-.26"/><path id="path310" class="cls-1" d="M15.66,27h22a3.39,3.39,0,0,1,.45,0v0a6.53,6.53,0,1,0,0-13,6.75,6.75,0,0,0-1.58.19.62.62,0,0,1-.78-.52A9.5,9.5,0,0,0,16.91,15.1c0,.26,0,.52,0,.77a.68.68,0,0,1-.19.51.67.67,0,0,1-.52.18,5.49,5.49,0,0,0-.58,0,5.24,5.24,0,1,0,0,10.47m0-11.76V15.1a10.78,10.78,0,0,1,21.3-2.34,8.48,8.48,0,0,1,1.22-.1,7.82,7.82,0,1,1,0,15.63H15.66a6.53,6.53,0,0,1,0-13"/><path id="path314" class="cls-1" d="M7.81,8.34A7.28,7.28,0,0,1,9,8.45,10.77,10.77,0,0,1,25.73,2a.63.63,0,0,1,.15.89A.64.64,0,0,1,25,3,9.49,9.49,0,0,0,10.17,9.3a.66.66,0,0,1-.28.44.68.68,0,0,1-.5.09,6.3,6.3,0,0,0-1.58-.21,6.53,6.53,0,0,0-.68,13,.64.64,0,0,1-.06,1.28H7A7.82,7.82,0,0,1,7.81,8.34"/><path id="path790" class="cls-1" d="M13.72,34.41a2.14,2.14,0,1,1-2.13-2.14,2.13,2.13,0,0,1,2.13,2.14"/><path id="path794" class="cls-1" d="M9.18,42.27A2.14,2.14,0,1,1,7,40.13a2.14,2.14,0,0,1,2.14,2.14"/><path id="path798" class="cls-1" d="M25.62,34.41a2.14,2.14,0,1,1-2.13-2.14,2.13,2.13,0,0,1,2.13,2.14"/><path id="path802" class="cls-1" d="M21.08,42.27a2.14,2.14,0,1,1-2.14-2.14,2.14,2.14,0,0,1,2.14,2.14"/><path id="path806" class="cls-1" d="M37.43,34.41a2.14,2.14,0,1,1-2.14-2.14,2.14,2.14,0,0,1,2.14,2.14"/><path id="path810" class="cls-1" d="M32.88,42.27a2.14,2.14,0,1,1-2.14-2.14,2.14,2.14,0,0,1,2.14,2.14"/></g></g></svg>