<svg xmlns="http://www.w3.org/2000/svg" viewBox="0 0 47.23 41.99"><defs><style>.cls-1{fill:#fff;}</style></defs><title>rain4</title><g id="Layer_2" data-name="Layer 2"><g id="Layer_1-2" data-name="Layer 1"><path id="path378" class="cls-1" d="M5.28,32.07a.66.66,0,0,0-.87.29L.07,41.05a.65.65,0,0,0,.29.87A.72.72,0,0,0,.64,42a.64.64,0,0,0,.58-.36l4.35-8.69a.65.65,0,0,0-.29-.87"/><path id="path382" class="cls-1" d="M12.53,32.07a.66.66,0,0,0-.87.29L7.32,41.05a.65.65,0,0,0,.29.87.72.72,0,0,0,.28.07.64.64,0,0,0,.58-.36l4.35-8.69a.65.65,0,0,0-.29-.87"/><path id="path386" class="cls-1" d="M19.78,32.07a.66.66,0,0,0-.87.29l-4.34,8.69a.65.65,0,0,0,.28.87.77.77,0,0,0,.29.07.64.64,0,0,0,.58-.36l4.35-8.69a.66.66,0,0,0-.29-.87"/><path id="path390" class="cls-1" d="M27,32.07a.66.66,0,0,0-.87.29l-4.35,8.69a.65.65,0,0,0,.29.87.77.77,0,0,0,.29.07.65.65,0,0,0,.58-.36l4.34-8.69a.65.65,0,0,0-.28-.87"/><path id="path394" class="cls-1" d="M34.27,32.07a.65.65,0,0,0-.86.29l-4.35,8.69a.65.65,0,0,0,.29.87.73.73,0,0,0,.29.07.66.66,0,0,0,.58-.36l4.34-8.69a.65.65,0,0,0-.29-.87"/><path id="path398" class="cls-1" d="M41.23,32.07a.65.65,0,0,0-.86.29L36,41.05a.65.65,0,0,0,.29.87.73.73,0,0,0,.29.07.65.65,0,0,0,.58-.36l4.34-8.69a.65.65,0,0,0-.29-.87"/><path id="path402" class="cls-1" d="M46.87,32.07a.65.65,0,0,0-.86.29l-4.35,8.69a.65.65,0,0,0,.29.87.73.73,0,0,0,.29.07.63.63,0,0,0,.57-.36l4.35-8.69a.65.65,0,0,0-.29-.87"/><path id="path406" class="cls-1" d="M16.25,27.17H38.87a6.57,6.57,0,0,0,0-13.14,6.77,6.77,0,0,0-1.58.2.64.64,0,0,1-.79-.53,9.55,9.55,0,0,0-19,1.5,6.34,6.34,0,0,0,0,.76.66.66,0,0,1-.72.7,5.49,5.49,0,0,0-.58,0,5.27,5.27,0,1,0,0,10.54m0-11.83V15.2a10.84,10.84,0,0,1,21.43-2.36,7.26,7.26,0,0,1,1.22-.1,7.86,7.86,0,0,1,0,15.72H16.25a6.56,6.56,0,0,1,0-13.12"/><path id="path410" class="cls-1" d="M8.35,8.39a8.5,8.5,0,0,1,1.23.1A10.84,10.84,0,0,1,26.38,2a.64.64,0,1,1-.74,1A9.56,9.56,0,0,0,10.73,9.36a.65.65,0,0,1-.79.52,6.79,6.79,0,0,0-1.59-.2,6.57,6.57,0,0,0-.68,13.11.64.64,0,0,1,.58.7.65.65,0,0,1-.64.58H7.54A7.86,7.86,0,0,1,8.35,8.39"/></g></g></svg>