<svg xmlns="http://www.w3.org/2000/svg" viewBox="0 0 48.78 41.54"><defs><style>.cls-1{fill:#fff;}</style></defs><title>rain1</title><g id="Layer_2" data-name="Layer 2"><g id="Layer_1-2" data-name="Layer 1"><path id="path230" class="cls-1" d="M17.4,39.22a.44.44,0,0,0-.62,0l-.48.48-.48-.48a.44.44,0,0,0-.62.62l.48.48-.48.47a.45.45,0,0,0,0,.63.47.47,0,0,0,.31.12.45.45,0,0,0,.31-.12l.48-.48.48.48a.43.43,0,0,0,.31.12.47.47,0,0,0,.31-.12.45.45,0,0,0,0-.63l-.48-.47.48-.48a.44.44,0,0,0,0-.62"/><path id="path234" class="cls-1" d="M32,39.22a.44.44,0,0,0-.62,0l-.47.48-.48-.48a.44.44,0,0,0-.62.62l.48.48-.48.47a.45.45,0,0,0,0,.63.45.45,0,0,0,.31.12.47.47,0,0,0,.31-.12l.48-.48.47.48a.47.47,0,0,0,.31.12.43.43,0,0,0,.31-.12.45.45,0,0,0,0-.63l-.47-.47.47-.48a.44.44,0,0,0,0-.62"/><path id="path250" class="cls-1" d="M14.07,31.91a.61.61,0,0,0-.82.27L9.11,40.46a.61.61,0,0,0,.28.82.63.63,0,0,0,.27.06.61.61,0,0,0,.55-.33l4.14-8.28a.61.61,0,0,0-.28-.82"/><path id="path258" class="cls-1" d="M27.87,31.91a.61.61,0,0,0-.82.27l-4.14,8.28a.61.61,0,0,0,.28.82.63.63,0,0,0,.27.06A.61.61,0,0,0,24,41l4.14-8.28a.61.61,0,0,0-.28-.82"/><path id="path266" class="cls-1" d="M41.67,31.91a.61.61,0,0,0-.82.27l-4.14,8.28a.61.61,0,0,0,.28.82.63.63,0,0,0,.27.06.61.61,0,0,0,.55-.33L42,32.73a.61.61,0,0,0-.28-.82"/><path id="path290" class="cls-1" d="M16.62,28.66H40a3.7,3.7,0,0,1,.47,0v0a6.93,6.93,0,0,0,0-13.86,7.09,7.09,0,0,0-1.68.21.69.69,0,0,1-.54-.09.71.71,0,0,1-.29-.46A10.08,10.08,0,0,0,18,16a7.32,7.32,0,0,0,0,.81.65.65,0,0,1-.21.54.64.64,0,0,1-.54.19c-.21,0-.41,0-.62,0a5.56,5.56,0,0,0,0,11.12m0-12.48V16a11.44,11.44,0,0,1,22.6-2.48A8.29,8.29,0,1,1,40.48,30H16.62a6.92,6.92,0,0,1,0-13.84"/><path id="path294" class="cls-1" d="M8.29,8.85A8,8,0,0,1,9.58,9,11.44,11.44,0,0,1,27.31,2.07a.68.68,0,0,1-.79,1.11A10.07,10.07,0,0,0,10.8,9.87a.67.67,0,0,1-.3.46.69.69,0,0,1-.54.1A6.93,6.93,0,1,0,7.57,24a.67.67,0,0,1,.61.74.68.68,0,0,1-.68.61H7.43A8.29,8.29,0,0,1,8.29,8.86"/></g></g></svg>