<svg xmlns="http://www.w3.org/2000/svg" viewBox="0 0 46.24 41.99"><defs><style>.cls-1{fill:#fff;}</style></defs><title>rain2</title><g id="Layer_2" data-name="Layer 2"><g id="Layer_1-2" data-name="Layer 1"><path id="path318" class="cls-1" d="M13.05,32.07a.65.65,0,0,0-.86.29L7.84,41.05a.65.65,0,0,0,.29.87.73.73,0,0,0,.29.07A.65.65,0,0,0,9,41.63l4.34-8.69a.65.65,0,0,0-.29-.87"/><path id="path322" class="cls-1" d="M20.3,32.07a.65.65,0,0,0-.86.29l-4.35,8.69a.65.65,0,0,0,.29.87.73.73,0,0,0,.29.07.63.63,0,0,0,.57-.36l4.35-8.69a.65.65,0,0,0-.29-.87"/><path id="path326" class="cls-1" d="M27.55,32.07a.65.65,0,0,0-.86.29l-4.35,8.69a.65.65,0,0,0,.29.87.73.73,0,0,0,.29.07.63.63,0,0,0,.57-.36l4.35-8.69a.65.65,0,0,0-.29-.87"/><path id="path330" class="cls-1" d="M34.8,32.07a.66.66,0,0,0-.87.29l-4.34,8.69a.65.65,0,0,0,.29.87.72.72,0,0,0,.28.07.64.64,0,0,0,.58-.36l4.35-8.69a.65.65,0,0,0-.29-.87"/><path id="path334" class="cls-1" d="M42.05,32.07a.66.66,0,0,0-.87.29l-4.34,8.69a.65.65,0,0,0,.28.87.77.77,0,0,0,.29.07.64.64,0,0,0,.58-.36l4.35-8.69a.66.66,0,0,0-.29-.87"/><path id="path338" class="cls-1" d="M15.76,27.17H38.38a6.57,6.57,0,0,0,0-13.14,6.77,6.77,0,0,0-1.58.2.68.68,0,0,1-.52-.09A.66.66,0,0,1,36,13.7a9.55,9.55,0,0,0-19,1.5c0,.26,0,.51,0,.76a.62.62,0,0,1-.19.52.67.67,0,0,1-.52.18,5.49,5.49,0,0,0-.58,0,5.27,5.27,0,1,0,0,10.54m0-11.83V15.2a10.84,10.84,0,0,1,21.43-2.36,7.46,7.46,0,0,1,1.23-.1,7.86,7.86,0,0,1,0,15.72H15.76a6.56,6.56,0,0,1,0-13.12"/><path id="path342" class="cls-1" d="M7.86,8.39a8.73,8.73,0,0,1,1.23.1A10.83,10.83,0,0,1,25.88,2a.62.62,0,0,1,.16.89.63.63,0,0,1-.9.16,9.55,9.55,0,0,0-14.9,6.35.61.61,0,0,1-.28.43.64.64,0,0,1-.52.09,6.71,6.71,0,0,0-1.58-.2,6.57,6.57,0,0,0-.68,13.11.64.64,0,0,1-.07,1.28H7A7.86,7.86,0,0,1,7.86,8.39"/></g></g></svg>