<svg xmlns="http://www.w3.org/2000/svg" viewBox="0 0 47.34 41.99"><defs><style>.cls-1{fill:#fff;}</style></defs><title>shower3</title><g id="Layer_2" data-name="Layer 2"><g id="Layer_1-2" data-name="Layer 1"><path id="path218" class="cls-1" d="M16.13,27.81h22.7a3.46,3.46,0,0,1,.46,0v0a6.73,6.73,0,1,0,0-13.45,6.55,6.55,0,0,0-1.62.21.71.71,0,0,1-.53-.09.68.68,0,0,1-.28-.45,9.78,9.78,0,0,0-19.45,1.53,7,7,0,0,0,.05.79.68.68,0,0,1-.2.52.66.66,0,0,1-.53.19,4,4,0,0,0-.6,0,5.4,5.4,0,0,0,0,10.79m0-12.11s0-.09,0-.14A11.1,11.1,0,0,1,38,13.15,7.85,7.85,0,0,1,39.29,13a8,8,0,1,1,0,16.09H16.13a6.72,6.72,0,0,1,0-13.43"/><path id="path222" class="cls-1" d="M8.05,8.59A7.64,7.64,0,0,1,9.3,8.7,11.09,11.09,0,0,1,26.5,2a.65.65,0,0,1,.16.91.66.66,0,0,1-.92.17A9.77,9.77,0,0,0,10.48,9.58a.63.63,0,0,1-.29.45.68.68,0,0,1-.52.09,6.59,6.59,0,0,0-1.62-.2,6.72,6.72,0,0,0-.7,13.41.67.67,0,0,1,.59.72.68.68,0,0,1-.66.6H7.21a8,8,0,0,1,.84-16"/><path id="path298" class="cls-1" d="M19.37,32.13a.63.63,0,0,0-.85.29l-4.33,8.64a.66.66,0,0,0,.29.86.73.73,0,0,0,.29.07.63.63,0,0,0,.57-.36L19.66,33a.64.64,0,0,0-.29-.86"/><path id="path302" class="cls-1" d="M26.58,32.13a.65.65,0,0,0-.86.29L21.4,41.06a.64.64,0,0,0,.29.86A.72.72,0,0,0,22,42a.65.65,0,0,0,.58-.36L26.87,33a.64.64,0,0,0-.29-.86"/><path id="path306" class="cls-1" d="M33.78,32.13a.65.65,0,0,0-.86.29L28.6,41.06a.65.65,0,0,0,.29.86.73.73,0,0,0,.29.07.63.63,0,0,0,.57-.36L34.07,33a.64.64,0,0,0-.29-.86"/></g></g></svg>