<svg xmlns="http://www.w3.org/2000/svg" viewBox="0 0 47.26 42.91"><defs><style>.cls-1{fill:#fff;}</style></defs><title>shower1</title><g id="Layer_2" data-name="Layer 2"><g id="Layer_1-2" data-name="Layer 1"><path id="path270" class="cls-1" d="M34.36,32.78a.66.66,0,0,0-.88.29L29,42a.66.66,0,0,0,.3.88.65.65,0,0,0,.29.07.67.67,0,0,0,.6-.36l4.44-8.89a.66.66,0,0,0-.3-.88"/><path id="path274" class="cls-1" d="M16.11,27.77H39.23a6.72,6.72,0,0,0,0-13.43,7,7,0,0,0-1.62.2.63.63,0,0,1-.53-.09A.66.66,0,0,1,36.8,14a9.76,9.76,0,0,0-19.41,1.52c0,.27,0,.53,0,.79a.67.67,0,0,1-.2.52.65.65,0,0,1-.53.19,5.85,5.85,0,0,0-.59,0,5.39,5.39,0,1,0,0,10.78m0-12.1v-.14A11.08,11.08,0,0,1,38,13.12a9.15,9.15,0,0,1,1.26-.1,8,8,0,1,1,0,16.06H16.11a6.71,6.71,0,0,1,0-13.41"/><path id="path278" class="cls-1" d="M8,8.58a7.73,7.73,0,0,1,1.26.1A11.08,11.08,0,0,1,26.46,2a.67.67,0,0,1,.16.92.66.66,0,0,1-.92.16A9.77,9.77,0,0,0,10.46,9.57a.66.66,0,0,1-.28.44.71.71,0,0,1-.53.09A7,7,0,0,0,8,9.9a6.71,6.71,0,0,0-.7,13.39.66.66,0,0,1-.06,1.31H7.2A8,8,0,0,1,8,8.58"/></g></g></svg>