<svg xmlns="http://www.w3.org/2000/svg" viewBox="0 0 44.02 43.54"><defs><style>.cls-1{fill:#fff;}</style></defs><title>shower2</title><g id="Layer_2" data-name="Layer 2"><g id="Layer_1-2" data-name="Layer 1"><path id="path242" class="cls-1" d="M15,25.86H36.11a2.88,2.88,0,0,1,.42,0v0a6.25,6.25,0,1,0,0-12.5,6.54,6.54,0,0,0-1.5.18.57.57,0,0,1-.49-.08.64.64,0,0,1-.27-.41,9.1,9.1,0,0,0-18.08,1.41c0,.25,0,.5,0,.74a.64.64,0,0,1-.18.49.65.65,0,0,1-.5.17,4.93,4.93,0,0,0-.55,0,5,5,0,1,0,0,10M15,14.6v-.14a10.32,10.32,0,0,1,20.4-2.24,7.65,7.65,0,0,1,1.16-.09,7.48,7.48,0,1,1,0,15H15A6.25,6.25,0,0,1,15,14.6"/><path id="path246" class="cls-1" d="M7.48,8a6.77,6.77,0,0,1,1.17.1,10.32,10.32,0,0,1,16-6.23.62.62,0,1,1-.71,1,9.09,9.09,0,0,0-14.19,6,.61.61,0,0,1-.26.42A.65.65,0,0,1,9,9.41a6.13,6.13,0,0,0-1.51-.19,6.25,6.25,0,0,0-.65,12.47.62.62,0,0,1,.55.67.61.61,0,0,1-.61.55H6.7A7.48,7.48,0,0,1,7.48,8"/><path id="path282" class="cls-1" d="M16.08,33.09a.67.67,0,0,0-.91.3l-4.58,9.17a.68.68,0,0,0,.3.91.68.68,0,0,0,.91-.3L16.39,34a.67.67,0,0,0-.31-.91"/><path id="path286" class="cls-1" d="M31.38,33.09a.67.67,0,0,0-.91.3l-4.59,9.17a.68.68,0,0,0,.3.91.7.7,0,0,0,.31.07.67.67,0,0,0,.61-.37L31.68,34a.68.68,0,0,0-.3-.91"/></g></g></svg>