<svg xmlns="http://www.w3.org/2000/svg" viewBox="0 0 45.55 41.92"><defs><style>.cls-1{fill:#fff;}</style></defs><title>sinrain2</title><g id="Layer_2" data-name="Layer 2"><g id="Layer_1-2" data-name="Layer 1"><path id="path114" class="cls-1" d="M22.33,36.92a.56.56,0,0,0-.74.25l-2,3.95a.56.56,0,0,0,.5.8.55.55,0,0,0,.49-.3l2-3.95a.57.57,0,0,0-.25-.75"/><path id="path118" class="cls-1" d="M29.41,36.92a.57.57,0,0,0-.75.25l-2,3.95a.56.56,0,0,0,.25.74.56.56,0,0,0,.75-.24l2-3.95a.56.56,0,0,0-.24-.75"/><path id="path122" class="cls-1" d="M36.48,36.92a.57.57,0,0,0-.75.25l-2,3.95a.54.54,0,0,0,.25.74.5.5,0,0,0,.24.06.56.56,0,0,0,.5-.3l2-3.95a.57.57,0,0,0-.25-.75"/><path id="path130" class="cls-1" d="M19.3,33.07H38.78a5.66,5.66,0,0,0,0-11.32,5.41,5.41,0,0,0-1.36.18.57.57,0,0,1-.44-.08.52.52,0,0,1-.24-.38,8.23,8.23,0,0,0-16.36,1.29c0,.22,0,.44,0,.66a.56.56,0,0,1-.17.44.57.57,0,0,1-.45.16,4.07,4.07,0,0,0-.5,0,4.54,4.54,0,0,0,0,9.08m0-10.19v-.12a9.34,9.34,0,0,1,18.46-2,6.38,6.38,0,0,1,1.05-.09,6.77,6.77,0,0,1,0,13.54H19.3a5.65,5.65,0,0,1,0-11.3"/><path id="path134" class="cls-1" d="M8.24,17.27a9,9,0,0,1,9-9,8.45,8.45,0,0,1,7.31,3.83.56.56,0,0,1-.93.61,7.34,7.34,0,0,0-6.38-3.32A7.86,7.86,0,0,0,13,23.88a.55.55,0,0,1,.16.77.54.54,0,0,1-.76.17,9,9,0,0,1-4.12-7.55"/><path id="path138" class="cls-1" d="M17.1,5.55A.56.56,0,0,1,16.54,5V.55A.56.56,0,0,1,17.1,0a.55.55,0,0,1,.55.55V5a.55.55,0,0,1-.55.56"/><path id="path142" class="cls-1" d="M11,7.28a.6.6,0,0,1-.29.08.54.54,0,0,1-.47-.26L7.92,3.32a.55.55,0,0,1,.18-.76.57.57,0,0,1,.77.18L11.2,6.51a.56.56,0,0,1-.18.77"/><path id="path146" class="cls-1" d="M6.43,12a.48.48,0,0,1-.26-.07L2.25,9.79a.56.56,0,0,1,.53-1L6.69,10.9a.56.56,0,0,1-.26,1"/><path id="path150" class="cls-1" d="M.55,16.5h0l4.44,0a.56.56,0,0,1,0,1.11H5l-4.44,0a.56.56,0,0,1,0-1.11"/><path id="path154" class="cls-1" d="M2.31,24.54,6.2,22.41a.56.56,0,0,1,.76.22.55.55,0,0,1-.22.75l-3.9,2.13a.52.52,0,0,1-.27.07.55.55,0,0,1-.26-1"/><path id="path158" class="cls-1" d="M31.89,9.64,28,11.77a.66.66,0,0,1-.27.06.55.55,0,0,1-.48-.28.56.56,0,0,1,.22-.76l3.89-2.13a.56.56,0,0,1,.54,1"/><path id="path162" class="cls-1" d="M10.21,27.06a.55.55,0,0,1,.76-.18.57.57,0,0,1,.18.77L8.79,31.42a.57.57,0,0,1-.47.26A.52.52,0,0,1,8,31.59a.55.55,0,0,1-.18-.76Z"/><path id="path166" class="cls-1" d="M24,7.11a.55.55,0,1,1-.94-.59L25.4,2.76a.56.56,0,1,1,1,.59L24,7.11Z"/></g></g></svg>