<svg xmlns="http://www.w3.org/2000/svg" viewBox="0 0 47.6 38.11"><defs><style>.cls-1{fill:#fff;}</style></defs><title>snow1</title><g id="Layer_2" data-name="Layer 2"><g id="Layer_1-2" data-name="Layer 1"><path id="path542" class="cls-1" d="M18.79,33.41a.67.67,0,0,0-.66.66v1h-1a.67.67,0,1,0,0,1.33h1v1a.67.67,0,0,0,.66.67.68.68,0,0,0,.67-.67v-1h1a.67.67,0,0,0,0-1.33h-1v-1a.67.67,0,0,0-.67-.66"/><path id="path562" class="cls-1" d="M16.22,28H39.05a3.54,3.54,0,0,1,.46,0v0a6.76,6.76,0,1,0-1.64-13.31.66.66,0,0,1-.81-.54,9.83,9.83,0,0,0-19.55,1.53c0,.27,0,.53,0,.79a.65.65,0,0,1-.2.53.66.66,0,0,1-.53.19c-.2,0-.4,0-.6,0a5.43,5.43,0,0,0,0,10.86m0-12.18v-.15a11.16,11.16,0,0,1,22.06-2.42,7.85,7.85,0,0,1,1.27-.1,8.09,8.09,0,1,1,0,16.17H16.22a6.75,6.75,0,0,1,0-13.5"/><path id="path566" class="cls-1" d="M8.09,8.64a7.64,7.64,0,0,1,1.26.1A11.16,11.16,0,0,1,26.65,2a.66.66,0,0,1,.16.92.67.67,0,0,1-.93.16A9.83,9.83,0,0,0,10.54,9.63a.68.68,0,0,1-.82.55A6.63,6.63,0,0,0,8.09,10a6.76,6.76,0,0,0-.7,13.49.65.65,0,0,1,.59.72.66.66,0,0,1-.66.6H7.25A8.09,8.09,0,0,1,8.09,8.64"/><path id="path3150" class="cls-1" d="M34.79,33.41a.67.67,0,0,0-.66.66v1h-1a.67.67,0,1,0,0,1.33h1v1a.67.67,0,0,0,.66.67.68.68,0,0,0,.67-.67v-1h1a.67.67,0,0,0,0-1.33h-1v-1a.67.67,0,0,0-.67-.66"/></g></g></svg>