<svg xmlns="http://www.w3.org/2000/svg" viewBox="0 0 49.25 38.85"><defs><style>.cls-1{fill:#fff;}</style></defs><title>snow2</title><g id="Layer_2" data-name="Layer 2"><g id="Layer_1-2" data-name="Layer 1"><path id="path530" class="cls-1" d="M16.78,28.94H40.4a3.77,3.77,0,0,1,.48,0v0a7,7,0,0,0,0-14,7.13,7.13,0,0,0-1.69.22.69.69,0,0,1-.54-.1.67.67,0,0,1-.3-.46,10.18,10.18,0,0,0-20.23,1.59c0,.27,0,.55,0,.82a.68.68,0,0,1-.2.54.69.69,0,0,1-.56.2,4.21,4.21,0,0,0-.62,0,5.62,5.62,0,0,0,0,11.23m0-12.6v-.15a11.55,11.55,0,0,1,22.82-2.51,8.37,8.37,0,1,1,1.31,16.63H16.79a7,7,0,0,1,0-14"/><path id="path534" class="cls-1" d="M8.37,8.94a8.37,8.37,0,0,1,1.31.11,11.54,11.54,0,0,1,17.89-7,.68.68,0,0,1,.17,1,.69.69,0,0,1-1,.17A10.17,10.17,0,0,0,10.9,10a.67.67,0,0,1-.3.46.65.65,0,0,1-.54.1,7.13,7.13,0,0,0-1.69-.22,7,7,0,0,0-.73,14,.69.69,0,0,1-.07,1.37H7.5a8.37,8.37,0,0,1,.87-16.7"/><path id="path3152" class="cls-1" d="M16.11,34.15a.67.67,0,0,0-.67.66v1h-1a.67.67,0,0,0,0,1.33h1v1a.66.66,0,0,0,1.14.47.67.67,0,0,0,.19-.47v-1h1a.65.65,0,0,0,.47-.19.66.66,0,0,0-.47-1.14h-1v-1a.67.67,0,0,0-.66-.66"/><path id="path3158" class="cls-1" d="M28.11,34.15a.67.67,0,0,0-.67.66v1h-1a.67.67,0,0,0,0,1.33h1v1a.66.66,0,0,0,1.14.47.67.67,0,0,0,.19-.47v-1h1a.65.65,0,0,0,.47-.19.66.66,0,0,0-.47-1.14h-1v-1a.67.67,0,0,0-.66-.66"/><path id="path3160" class="cls-1" d="M40.11,34.15a.67.67,0,0,0-.67.66v1h-1a.67.67,0,0,0,0,1.33h1v1a.66.66,0,0,0,1.14.47.67.67,0,0,0,.19-.47v-1h1a.65.65,0,0,0,.47-.19.66.66,0,0,0-.47-1.14h-1v-1a.67.67,0,0,0-.66-.66"/></g></g></svg>