<svg xmlns="http://www.w3.org/2000/svg" viewBox="0 0 46.22 46.3"><defs><style>.cls-1{fill:#fff;}</style></defs><title>snow3</title><g id="Layer_2" data-name="Layer 2"><g id="Layer_1-2" data-name="Layer 1"><path id="path506" class="cls-1" d="M15.75,27.15H37.92a3.24,3.24,0,0,1,.44,0v0a6.57,6.57,0,1,0,0-13.13,6.71,6.71,0,0,0-1.58.2.64.64,0,0,1-.52-.09A.64.64,0,0,1,36,13.7a9.55,9.55,0,0,0-19,1.49c0,.26,0,.51,0,.77a.61.61,0,0,1-.19.51.63.63,0,0,1-.52.18,5.49,5.49,0,0,0-.58,0,5.27,5.27,0,1,0,0,10.53m0-11.82v-.14a10.84,10.84,0,0,1,21.42-2.35,7.49,7.49,0,0,1,1.23-.11,7.86,7.86,0,1,1,0,15.71H15.75a6.56,6.56,0,0,1,0-13.11"/><path id="path510" class="cls-1" d="M7.85,8.39a7.29,7.29,0,0,1,1.23.1A10.83,10.83,0,0,1,25.87,2a.65.65,0,0,1,.16.9.64.64,0,0,1-.9.15,9.55,9.55,0,0,0-14.9,6.34.64.64,0,0,1-.79.53,6.79,6.79,0,0,0-1.59-.2,6.57,6.57,0,0,0-.68,13.1.64.64,0,0,1,.58.7.65.65,0,0,1-.64.58H7A7.86,7.86,0,0,1,7.86,8.39"/><path id="path3162" class="cls-1" d="M15.28,33.61a.66.66,0,0,0-.66.66v1h-1a.67.67,0,0,0,0,1.33h1v1a.66.66,0,0,0,.66.66.65.65,0,0,0,.47-.19.67.67,0,0,0,.2-.47v-1h1a.67.67,0,0,0,0-1.33H16v-1a.66.66,0,0,0-.67-.66"/><path id="path3164" class="cls-1" d="M27.28,33.61a.66.66,0,0,0-.66.66v1h-1a.67.67,0,0,0,0,1.33h1v1a.66.66,0,0,0,.66.66.65.65,0,0,0,.47-.19.67.67,0,0,0,.2-.47v-1h1a.67.67,0,0,0,0-1.33H28v-1a.66.66,0,0,0-.67-.66"/><path id="path3166" class="cls-1" d="M39.28,33.61a.66.66,0,0,0-.66.66v1h-1a.67.67,0,0,0,0,1.33h1v1a.66.66,0,0,0,.66.66.65.65,0,0,0,.47-.19.67.67,0,0,0,.2-.47v-1h1a.67.67,0,0,0,0-1.33H40v-1a.66.66,0,0,0-.67-.66"/><path id="path3168" class="cls-1" d="M9.28,41.61a.66.66,0,0,0-.66.66v1h-1a.67.67,0,0,0,0,1.33h1v1a.66.66,0,0,0,.66.66.65.65,0,0,0,.47-.19.67.67,0,0,0,.2-.47v-1h1a.67.67,0,0,0,0-1.33H10v-1a.66.66,0,0,0-.67-.66"/><path id="path3170" class="cls-1" d="M21.28,41.61a.66.66,0,0,0-.66.66v1h-1a.67.67,0,0,0,0,1.33h1v1a.66.66,0,0,0,.66.66.65.65,0,0,0,.47-.19.67.67,0,0,0,.2-.47v-1h1a.67.67,0,0,0,0-1.33H22v-1a.66.66,0,0,0-.67-.66"/><path id="path3172" class="cls-1" d="M33.28,41.61a.66.66,0,0,0-.66.66v1h-1a.67.67,0,0,0,0,1.33h1v1a.66.66,0,0,0,.66.66.65.65,0,0,0,.47-.19.67.67,0,0,0,.2-.47v-1h1a.67.67,0,0,0,0-1.33H34v-1a.66.66,0,0,0-.67-.66"/></g></g></svg>