<svg xmlns="http://www.w3.org/2000/svg" viewBox="0 0 43.21 43.18"><defs><style>.cls-1{fill:#fff;}</style></defs><title>sun1</title><g id="Layer_2" data-name="Layer 2"><g id="Layer_1-2" data-name="Layer 1"><path id="path22" class="cls-1" d="M21.61,31.61a9.94,9.94,0,1,1,9.94-9.94,9.94,9.94,0,0,1-9.94,9.94m0-21.28A11.34,11.34,0,1,0,33,21.67,11.36,11.36,0,0,0,21.61,10.33"/><path id="path26" class="cls-1" d="M21.61,7a.7.7,0,0,0,.7-.7V.7a.7.7,0,0,0-1.4,0V6.31a.7.7,0,0,0,.7.7"/><path id="path30" class="cls-1" d="M21.61,36.17a.7.7,0,0,0-.7.71v5.6a.7.7,0,1,0,1.4,0v-5.6a.7.7,0,0,0-.7-.71"/><path id="path34" class="cls-1" d="M29.29,9.19a.69.69,0,0,0,1-.22l3-4.77A.7.7,0,1,0,32,3.46L29.06,8.23a.7.7,0,0,0,.23,1"/><path id="path38" class="cls-1" d="M13.93,34a.7.7,0,0,0-1,.23L10,39a.7.7,0,0,0,.22,1,.74.74,0,0,0,.37.1.68.68,0,0,0,.6-.33L14.16,35a.69.69,0,0,0-.23-1"/><path id="path42" class="cls-1" d="M35.09,15.1a.66.66,0,0,0,.33-.09l4.95-2.64a.7.7,0,0,0-.67-1.24l-4.94,2.65a.71.71,0,0,0-.29,1,.72.72,0,0,0,.62.37"/><path id="path46" class="cls-1" d="M7.79,28.21,2.84,30.86a.71.71,0,0,0-.29.95.7.7,0,0,0,.62.37.73.73,0,0,0,.33-.08l4.95-2.65a.7.7,0,0,0-.66-1.24"/><path id="path50" class="cls-1" d="M42.51,20.85h0l-5.61,0a.7.7,0,0,0,0,1.4h0l5.61,0a.7.7,0,0,0,0-1.4"/><path id="path54" class="cls-1" d="M7,21.65a.7.7,0,0,0-.7-.7h0L.7,21a.7.7,0,0,0,0,1.4H6.31a.7.7,0,0,0,.7-.71"/><path id="path58" class="cls-1" d="M40.3,31l-4.93-2.69a.7.7,0,1,0-.67,1.23l4.93,2.69a.66.66,0,0,0,.33.09A.7.7,0,0,0,40.3,31"/><path id="path62" class="cls-1" d="M8.52,13.63,3.6,10.94a.7.7,0,0,0-1,.28.69.69,0,0,0,.28.95l4.92,2.69a.69.69,0,0,0,1-.27.71.71,0,0,0-.28-1"/><path id="path66" class="cls-1" d="M30.32,34.19a.7.7,0,0,0-1-.22.69.69,0,0,0-.22,1l3,4.76a.72.72,0,0,0,.6.33.64.64,0,0,0,.37-.11.69.69,0,0,0,.22-1l-3-4.76Z"/><path id="path70" class="cls-1" d="M12.91,9a.69.69,0,0,0,1,.22.71.71,0,0,0,.23-1l-3-4.76a.7.7,0,0,0-1.19.75Z"/></g></g></svg>