<svg xmlns="http://www.w3.org/2000/svg" viewBox="0 0 49.41 37.07"><defs><style>.cls-1{fill:#fff;}</style></defs><title>suncloud1</title><g id="Layer_2" data-name="Layer 2"><g id="Layer_1-2" data-name="Layer 1"><path id="path74" class="cls-1" d="M20.93,35.87H42.06a6.14,6.14,0,1,0,0-12.27,6.5,6.5,0,0,0-1.48.18.6.6,0,0,1-.47-.08.62.62,0,0,1-.27-.41,8.92,8.92,0,0,0-17.74,1.4c0,.24,0,.48,0,.71a.61.61,0,0,1-.66.65,4.93,4.93,0,1,0-.55,9.82m0-11v-.13a10.13,10.13,0,0,1,20-2.2,6.46,6.46,0,0,1,1.15-.1,7.34,7.34,0,0,1,0,14.68H20.93a6.13,6.13,0,0,1,0-12.25"/><path id="path78" class="cls-1" d="M8.94,18.73A9.74,9.74,0,0,1,18.67,9a9.17,9.17,0,0,1,7.94,4.14.61.61,0,0,1-.18.84.6.6,0,0,1-.83-.17,8,8,0,0,0-6.93-3.61,8.53,8.53,0,0,0-4.61,15.7.61.61,0,0,1,.17.84.57.57,0,0,1-.5.27.66.66,0,0,1-.33-.09,9.73,9.73,0,0,1-4.46-8.19"/><path id="path82" class="cls-1" d="M18.55,6a.61.61,0,0,1-.61-.61V.6a.61.61,0,0,1,1.21,0V5.41a.6.6,0,0,1-.6.61"/><path id="path86" class="cls-1" d="M12,7.89a.56.56,0,0,1-.31.09.63.63,0,0,1-.52-.28L8.59,3.6a.6.6,0,0,1,.2-.83.61.61,0,0,1,.83.2l2.53,4.09a.59.59,0,0,1-.2.83"/><path id="path90" class="cls-1" d="M7,13a.58.58,0,0,1-.28-.07L2.44,10.62A.61.61,0,0,1,3,9.55l4.25,2.28a.59.59,0,0,1,.24.81A.57.57,0,0,1,7,13"/><path id="path94" class="cls-1" d="M.6,17.9H5.42a.61.61,0,0,1,.6.61.6.6,0,0,1-.6.6H.6A.61.61,0,0,1,0,18.5a.6.6,0,0,1,.6-.6"/><path id="path98" class="cls-1" d="M2.5,26.61,6.73,24.3a.6.6,0,1,1,.58,1.06L3.08,27.67a.59.59,0,0,1-.29.07.6.6,0,0,1-.29-1.13"/><path id="path102" class="cls-1" d="M34.59,10.45l-4.23,2.31a.59.59,0,0,1-.29.07.6.6,0,0,1-.29-1.13L34,9.39a.6.6,0,0,1,.58,1.06"/><path id="path106" class="cls-1" d="M11.07,29.35a.6.6,0,0,1,1,.64L9.54,34.07a.6.6,0,0,1-.51.29.62.62,0,0,1-.32-.09.6.6,0,0,1-.19-.83l2.55-4.09Z"/><path id="path110" class="cls-1" d="M26,7.72a.61.61,0,0,1-.51.28.62.62,0,0,1-.32-.09A.6.6,0,0,1,25,7.08L27.55,3a.6.6,0,0,1,1,.64L26,7.72Z"/></g></g></svg>