<svg xmlns="http://www.w3.org/2000/svg" viewBox="0 0 44.32 43.16"><defs><style>.cls-1{fill:#fff;}</style></defs><title>sunrain1</title><g id="Layer_2" data-name="Layer 2"><g id="Layer_1-2" data-name="Layer 1"><path id="path174" class="cls-1" d="M18.78,32.18h19a5.51,5.51,0,0,0,0-11,5.16,5.16,0,0,0-1.33.17.56.56,0,0,1-.67-.45,8,8,0,0,0-15.91,1.26c0,.21,0,.43,0,.64a.5.5,0,0,1-.16.43.52.52,0,0,1-.43.15,3.91,3.91,0,0,0-.49,0,4.42,4.42,0,0,0,0,8.84m0-9.92v-.11a9.09,9.09,0,0,1,18-2,7.26,7.26,0,0,1,1-.08,6.59,6.59,0,0,1,0,13.17h-19a5.5,5.5,0,0,1,0-11"/><path id="path178" class="cls-1" d="M8,16.8a8.74,8.74,0,0,1,8.73-8.73,8.23,8.23,0,0,1,7.12,3.72.55.55,0,0,1-.16.75.52.52,0,0,1-.74-.15,7.16,7.16,0,0,0-6.22-3.24,7.65,7.65,0,0,0-4.14,14.09.54.54,0,0,1,.16.75.53.53,0,0,1-.45.24.54.54,0,0,1-.3-.08A8.73,8.73,0,0,1,8,16.8"/><path id="path182" class="cls-1" d="M16.64,5.4a.54.54,0,0,1-.54-.54V.54a.54.54,0,1,1,1.08,0V4.86a.54.54,0,0,1-.54.54"/><path id="path186" class="cls-1" d="M10.72,7.08a.54.54,0,0,1-.28.08A.54.54,0,0,1,10,6.91L7.71,3.24a.55.55,0,0,1,.17-.75.54.54,0,0,1,.75.18L10.9,6.34a.53.53,0,0,1-.18.74"/><path id="path190" class="cls-1" d="M6.25,11.63A.47.47,0,0,1,6,11.56l-3.81-2a.54.54,0,1,1,.51-.95l3.81,2a.54.54,0,0,1,.22.73.55.55,0,0,1-.48.29"/><path id="path194" class="cls-1" d="M.54,16.06H4.86a.54.54,0,1,1,0,1.08H.54a.54.54,0,0,1,0-1.08"/><path id="path198" class="cls-1" d="M2.24,23.88,6,21.8a.54.54,0,0,1,.52.95l-3.8,2.08a.58.58,0,0,1-.26.06.54.54,0,0,1-.26-1"/><path id="path202" class="cls-1" d="M31,9.38l-3.8,2.07a.59.59,0,0,1-.25.07.56.56,0,0,1-.48-.29.54.54,0,0,1,.22-.73l3.79-2.07a.53.53,0,0,1,.73.21.55.55,0,0,1-.21.74"/><path id="path206" class="cls-1" d="M9.93,26.33a.54.54,0,1,1,.91.58L8.55,30.57a.53.53,0,0,1-.45.25.51.51,0,0,1-.29-.08A.54.54,0,0,1,7.64,30l2.29-3.67Z"/><path id="path210" class="cls-1" d="M23.34,6.92a.53.53,0,0,1-.46.26.51.51,0,0,1-.28-.09.53.53,0,0,1-.17-.74l2.29-3.67a.54.54,0,0,1,.74-.17.55.55,0,0,1,.17.75Z"/><path id="path6203" class="cls-1" d="M32.75,38.16a.56.56,0,0,0-.75.24l-2,4a.56.56,0,0,0,.24.75.57.57,0,0,0,.25.06.55.55,0,0,0,.5-.31l2-4a.55.55,0,0,0-.24-.74"/><path id="path3184" class="cls-1" d="M22.75,38.16a.56.56,0,0,0-.75.24l-2,4a.56.56,0,0,0,.24.75.57.57,0,0,0,.25.06.55.55,0,0,0,.5-.31l2-4a.55.55,0,0,0-.24-.74"/></g></g></svg>