<svg xmlns="http://www.w3.org/2000/svg" viewBox="0 0 47.51 43.94"><defs><style>.cls-1{fill:#fff;}</style></defs><title>sunsnow1</title><g id="Layer_2" data-name="Layer 2"><g id="Layer_1-2" data-name="Layer 1"><path id="path438" class="cls-1" d="M20.13,34.49H40.05a2.68,2.68,0,0,1,.4,0v0a5.9,5.9,0,0,0,0-11.8,6,6,0,0,0-1.43.18.58.58,0,0,1-.46-.08.61.61,0,0,1-.25-.39,8.58,8.58,0,0,0-17.06,1.34c0,.23,0,.46,0,.69a.6.6,0,0,1-.17.46.59.59,0,0,1-.47.16,4.41,4.41,0,0,0-.52,0,4.74,4.74,0,1,0,0,9.47m0-10.63v-.12a9.74,9.74,0,0,1,19.25-2.12,6.89,6.89,0,0,1,1.1-.09,7.06,7.06,0,0,1,0,14.12H20.13a5.9,5.9,0,0,1,0-11.79"/><path id="path442" class="cls-1" d="M8.6,18A9.37,9.37,0,0,1,18,8.65a8.8,8.8,0,0,1,7.62,4,.58.58,0,0,1-1,.64A7.67,7.67,0,0,0,18,9.81a8.2,8.2,0,0,0-4.44,15.1A.58.58,0,0,1,13.2,26a.52.52,0,0,1-.31-.1A9.31,9.31,0,0,1,8.6,18"/><path id="path446" class="cls-1" d="M17.83,5.79a.58.58,0,0,1-.58-.58V.58a.58.58,0,1,1,1.16,0V5.21a.58.58,0,0,1-.58.58"/><path id="path450" class="cls-1" d="M11.5,7.59a.59.59,0,0,1-.31.09.58.58,0,0,1-.49-.28L8.26,3.47a.58.58,0,0,1,1-.61l2.43,3.93a.58.58,0,0,1-.18.8"/><path id="path454" class="cls-1" d="M6.7,12.46a.54.54,0,0,1-.27-.07L2.35,10.21a.59.59,0,0,1-.24-.79.57.57,0,0,1,.78-.23L7,11.37a.59.59,0,0,1,.24.79.6.6,0,0,1-.52.3"/><path id="path458" class="cls-1" d="M.58,17.21l4.63,0a.58.58,0,0,1,.58.58.57.57,0,0,1-.58.57H.58A.58.58,0,0,1,0,17.79a.59.59,0,0,1,.58-.58"/><path id="path462" class="cls-1" d="M2.41,25.59l4.06-2.22a.58.58,0,0,1,.56,1L3,26.61a.54.54,0,0,1-.27.07.57.57,0,0,1-.51-.3.58.58,0,0,1,.23-.79"/><path id="path466" class="cls-1" d="M33.26,10.05l-4.07,2.22a.55.55,0,0,1-.28.07.58.58,0,0,1-.27-1.08L32.7,9a.58.58,0,1,1,.56,1"/><path id="path470" class="cls-1" d="M10.64,28.22a.58.58,0,0,1,1,.62L9.17,32.77a.58.58,0,0,1-.8.18.58.58,0,0,1-.18-.8l2.45-3.93Z"/><path id="path474" class="cls-1" d="M25,7.42a.57.57,0,0,1-.49.27.59.59,0,0,1-.31-.09A.57.57,0,0,1,24,6.81l2.45-3.93a.58.58,0,1,1,1,.61L25,7.42Z"/><path id="path3186" class="cls-1" d="M15.29,39.24a.67.67,0,0,0-.66.67v1h-1a.66.66,0,1,0,0,1.32h1v1a.67.67,0,0,0,.66.66.67.67,0,0,0,.67-.66v-1h1a.66.66,0,1,0,0-1.32H16v-1a.67.67,0,0,0-.67-.67"/><path id="path3188" class="cls-1" d="M27.29,39.24a.67.67,0,0,0-.66.67v1h-1a.66.66,0,1,0,0,1.32h1v1a.67.67,0,0,0,.66.66.67.67,0,0,0,.67-.66v-1h1a.66.66,0,0,0,0-1.32H28v-1a.67.67,0,0,0-.67-.67"/><path id="path3190" class="cls-1" d="M39.29,39.24a.67.67,0,0,0-.66.67v1h-1a.66.66,0,1,0,0,1.32h1v1a.67.67,0,0,0,.66.66.67.67,0,0,0,.67-.66v-1h1a.66.66,0,1,0,0-1.32H40v-1a.67.67,0,0,0-.67-.67"/></g></g></svg>