<svg xmlns="http://www.w3.org/2000/svg" viewBox="0 0 32 32"><defs><style>.cls-1{fill:#fff;}</style></defs><title>temperature</title><g id="Layer_2" data-name="Layer 2"><g id="Layer_1-2" data-name="Layer 1"><path id="path3233" class="cls-1" d="M16.17,5.56A10.74,10.74,0,0,0,5.44,16.29a.78.78,0,0,0,1.55,0,9.18,9.18,0,1,1,18.35,0,.77.77,0,0,0,.78.77.76.76,0,0,0,.77-.77A10.74,10.74,0,0,0,16.17,5.56Z"/><path id="path3235" class="cls-1" d="M21.37,10.87a.77.77,0,0,0-1,.41l-3.47,8.16a4.17,4.17,0,0,0-.71-.07,3.76,3.76,0,1,0,2.14.68l3.47-8.17a.77.77,0,0,0-.41-1Zm-5.2,14.44a2.2,2.2,0,1,1,2.19-2.2A2.2,2.2,0,0,1,16.17,25.31Z"/><path id="path3247" class="cls-1" d="M16,0A16,16,0,1,0,32,16,16,16,0,0,0,16,0Zm0,1.48A14.52,14.52,0,1,1,1.48,16,14.51,14.51,0,0,1,16,1.48Z"/></g></g></svg>