<svg xmlns="http://www.w3.org/2000/svg" viewBox="0 0 19.26 34.66"><defs><style>.cls-1{fill:#fff;}</style></defs><title>thunder</title><g id="Layer_2" data-name="Layer 2"><g id="Layer_1-2" data-name="Layer 1"><path id="path4253" class="cls-1" d="M5.62,0a1.71,1.71,0,0,0-1,.31,1.53,1.53,0,0,0-.56.81v0L0,17.66v0a1.52,1.52,0,0,0,.5,1.44,1.66,1.66,0,0,0,1.06.4A2.25,2.25,0,0,0,2,19.47H2l7-1.72-3.66,15v0A1.49,1.49,0,0,0,6.4,34.59h.1a1.67,1.67,0,0,0,.4.07,1.72,1.72,0,0,0,1.47-.88v0L19.15,10.63a1.59,1.59,0,0,0-.22-1.54s0-.09,0-.12l-.25.19.22-.22a1.62,1.62,0,0,0-1.15-.5,1.55,1.55,0,0,0-.41.06l-6.66,1.66,2.94-8,0-.06a1.34,1.34,0,0,0,.16-.6A1.54,1.54,0,0,0,13.31.44,1.64,1.64,0,0,0,12.18,0Zm0,1.38h6.56c.1,0,.11,0,.16.06s0,0,0,.09,0,0,0,0v.06l0,0L8.9,10.91l-.47,1.22,1.29-.32,7.93-1.93c.09,0,.13,0,.07,0a.21.21,0,0,1,.15.07s0,0,0,0,.08,0,0,.09L7.12,33.12s0,0,0,0,0,.09-.19.09H6.81a.1.1,0,0,1-.06,0s0,0,0-.06,0,0,0-.07l3.94-16.15.28-1.13-1.12.28-8.1,2h0c.07,0,0,0-.06,0a.17.17,0,0,1-.16-.06c-.05,0,0,0,0-.06v0l4-16.44v0s0,0,.07-.06a.21.21,0,0,1,.15-.07Z"/></g></g></svg>