<svg xmlns="http://www.w3.org/2000/svg" viewBox="0 0 37.63 35.32"><defs><style>.cls-1{fill:#fff;}</style></defs><title>wind</title><g id="Layer_2" data-name="Layer 2"><g id="Layer_1-2" data-name="Layer 1"><path id="path4117" class="cls-1" d="M.76,13.26A17.24,17.24,0,0,0,.9,23.84c2.87,8.48,12.24,13.6,20.86,10.62,7.61-2.62,12.2-11.08,9.45-18.83C28.82,8.9,21.27,4.84,14.4,7.37,8.54,9.52,5,16.16,7.35,22.16c1.92,5,7.65,8,12.76,5.87,4.11-1.68,6.55-6.51,4.66-10.75-1.44-3.23-5.38-5.15-8.73-3.44a5.38,5.38,0,0,0-2.58,2.86,4.35,4.35,0,0,0,.34,3.89A3.8,3.8,0,0,0,16,22.12a2.66,2.66,0,0,0,2.7-.7,2,2,0,0,0,.48-1.64,1.34,1.34,0,0,0-.42-.93,1.4,1.4,0,0,0-1.25-.26L17.85,20c.08,0-.07,0-.15-.08s-.07-.12-.06-.05-.15.56-.1.51a1.1,1.1,0,0,1-1.21.28,2.41,2.41,0,0,1-1.24-.94,2.76,2.76,0,0,1-.21-2.54,4,4,0,0,1,1.83-2.06c2.52-1.28,5.57.24,6.68,2.74,1.52,3.41-.49,7.35-3.86,8.73-4.28,1.75-9.16-.79-10.79-5-2-5.17,1.07-10.95,6.17-12.83,6-2.22,12.76,1.39,14.88,7.36,2.46,6.92-1.66,14.56-8.5,16.92-7.8,2.69-16.35-2-18.95-9.69C-.58,14.7,4.6,5.23,13.18,2.39c9.55-3.16,19.93,2.53,23,12l1.44-.47C34.3,3.68,23.08-2.48,12.71,1a18.73,18.73,0,0,0-12,12.3Z"/></g></g></svg>